<svg xmlns="http://www.w3.org/2000/svg" xmlns:xlink="http://www.w3.org/1999/xlink" viewBox="0 0 1280 724"><defs><style>.cls-1{fill:url(#linear-gradient);}.cls-2{fill:url(#linear-gradient-2);}.cls-3{fill:url(#linear-gradient-3);}.cls-4{fill:url(#linear-gradient-4);}.cls-5{fill:url(#linear-gradient-5);}.cls-6{fill:url(#linear-gradient-6);}.cls-7{fill:url(#linear-gradient-7);}.cls-8{fill:url(#linear-gradient-8);}.cls-9{fill:url(#linear-gradient-9);}.cls-10{fill:url(#linear-gradient-10);}.cls-11{fill:url(#linear-gradient-11);}.cls-12{fill:url(#linear-gradient-12);}.cls-13{fill:url(#linear-gradient-13);}.cls-14{fill:url(#linear-gradient-14);}.cls-15{fill:url(#linear-gradient-15);}.cls-16{fill:url(#linear-gradient-16);}.cls-17{fill:url(#linear-gradient-17);}.cls-18{fill:url(#linear-gradient-18);}.cls-19{fill:url(#linear-gradient-19);}.cls-20{fill:url(#linear-gradient-20);}.cls-21{fill:url(#linear-gradient-21);}.cls-22{fill:url(#linear-gradient-22);}</style><linearGradient id="linear-gradient" x1="1038.28" y1="501.72" x2="1280" y2="501.72" gradientUnits="userSpaceOnUse"><stop offset="0" stop-color="#fafafa"/><stop offset="1" stop-color="#d5d5d5"/></linearGradient><linearGradient id="linear-gradient-2" x1="1226.19" y1="381.33" y2="381.33" xlink:href="#linear-gradient"/><linearGradient id="linear-gradient-3" x1="1173.87" y1="139.72" y2="139.72" xlink:href="#linear-gradient"/><linearGradient id="linear-gradient-4" x1="874.23" y1="285.7" x2="1226.19" y2="285.7" xlink:href="#linear-gradient"/><linearGradient id="linear-gradient-5" x1="961.15" y1="647.7" x2="1109.84" y2="647.7" xlink:href="#linear-gradient"/><linearGradient id="linear-gradient-6" x1="746.37" y1="456.4" x2="1038.28" y2="456.4" xlink:href="#linear-gradient"/><linearGradient id="linear-gradient-7" x1="770.34" y1="110.77" x2="1023.22" y2="110.77" xlink:href="#linear-gradient"/><linearGradient id="linear-gradient-8" x1="940.07" y1="707.63" x2="986.31" y2="707.63" xlink:href="#linear-gradient"/><linearGradient id="linear-gradient-9" x1="580.98" y1="567.83" x2="961.15" y2="567.83" xlink:href="#linear-gradient"/><linearGradient id="linear-gradient-10" x1="491.98" y1="205.84" x2="874.23" y2="205.84" xlink:href="#linear-gradient"/><linearGradient id="linear-gradient-11" x1="536.31" y1="690.79" x2="822.12" y2="690.79" xlink:href="#linear-gradient"/><linearGradient id="linear-gradient-12" x1="359.31" y1="663.69" x2="580.98" y2="663.69" xlink:href="#linear-gradient"/><linearGradient id="linear-gradient-13" x1="0" y1="99.13" x2="508.58" y2="99.13" xlink:href="#linear-gradient"/><linearGradient id="linear-gradient-14" x1="305.15" y1="174.96" x2="491.98" y2="174.96" xlink:href="#linear-gradient"/><linearGradient id="linear-gradient-15" x1="98.95" y1="400.82" x2="452.98" y2="400.82" xlink:href="#linear-gradient"/><linearGradient id="linear-gradient-16" x1="193.34" y1="637.4" x2="384.18" y2="637.4" xlink:href="#linear-gradient"/><linearGradient id="linear-gradient-17" x1="0" y1="189.76" x2="305.15" y2="189.76" xlink:href="#linear-gradient"/><linearGradient id="linear-gradient-18" x1="0" y1="610.77" x2="266.9" y2="610.77" xlink:href="#linear-gradient"/><linearGradient id="linear-gradient-19" x1="0" y1="439.69" x2="193.34" y2="439.69" xlink:href="#linear-gradient"/><linearGradient id="linear-gradient-20" x1="0" y1="243.35" x2="98.95" y2="243.35" xlink:href="#linear-gradient"/><linearGradient id="linear-gradient-21" x1="453.03" y1="245.59" x2="745.59" y2="245.59" xlink:href="#linear-gradient"/><linearGradient id="linear-gradient-22" x1="384.18" y1="369.05" x2="746.37" y2="369.05" xlink:href="#linear-gradient"/></defs><g id="Layer_3" data-name="Layer 3"><polygon class="cls-1" points="1280 566.84 1280 724 1109.84 724 1038.28 571.4 1226.19 279.43 1280 566.84"/><polygon class="cls-2" points="1280 195.82 1280 566.84 1226.19 279.43 1280 195.82"/><polygon class="cls-3" points="1280 0 1280 195.82 1226.19 279.43 1173.87 0 1280 0"/><polygon class="cls-4" points="1173.87 0 1226.19 279.43 1038.28 571.4 874.23 221.55 1023.22 0 1173.87 0"/><polygon class="cls-5" points="1038.28 571.4 1109.84 724 986.31 724 961.15 691.25 1038.28 571.4"/><polygon class="cls-6" points="874.23 221.55 1038.28 571.4 961.15 691.25 746.37 411.67 874.23 221.55"/><polygon class="cls-7" points="1023.22 0 874.23 221.55 770.34 0 1023.22 0"/><polygon class="cls-8" points="986.31 724 940.07 724 961.15 691.25 986.31 724"/><polygon class="cls-9" points="961.15 691.25 940.07 724 822.12 724 580.98 657.58 746.37 411.67 961.15 691.25"/><polygon class="cls-10" points="770.34 0 874.23 221.55 746.37 411.67 491.98 80.52 508.58 0 770.34 0"/><polygon class="cls-11" points="822.12 724 536.31 724 580.98 657.58 822.12 724"/><polygon class="cls-12" points="580.98 657.58 536.31 724 359.31 724 384.18 603.37 580.98 657.58"/><polygon class="cls-13" points="508.58 0 491.98 80.52 491.79 80.28 491.5 80.5 305.15 198.26 0 50.93 0 0 508.58 0"/><polygon class="cls-14" points="491.98 80.52 452.98 269.64 305.15 198.26 491.5 80.5 491.79 80.28 491.98 80.52"/><polygon class="cls-15" points="452.98 269.64 384.18 603.37 193.34 550.81 98.95 328.58 305.15 198.26 452.98 269.64"/><polygon class="cls-16" points="384.18 603.37 359.31 724 266.9 724 193.34 550.81 384.18 603.37"/><polygon class="cls-17" points="305.15 198.26 98.95 328.58 0 95.59 0 50.93 305.15 198.26"/><polygon class="cls-18" points="193.34 550.81 266.9 724 0 724 0 497.55 193.34 550.81"/><polygon class="cls-19" points="98.95 328.58 193.34 550.81 0 497.55 0 391.11 98.95 328.58"/><polygon class="cls-20" points="0 95.59 98.95 328.58 0 391.11 0 95.59"/><polygon class="cls-21" points="610.15 345.26 745.59 410.66 491.98 80.52 453.03 269.4 610.15 345.26"/><polygon class="cls-22" points="745.59 410.66 610.15 345.26 453.03 269.4 491.98 80.52 452.98 269.64 384.18 603.37 580.98 657.58 746.37 411.67 745.59 410.66"/></g></svg>